<?xml version="1.0" encoding="UTF-8"?>
<svg id="Layer_1" xmlns="http://www.w3.org/2000/svg" version="1.1" viewBox="0 0 601 603.1">
  <!-- Generator: Adobe Illustrator 30.0.0, SVG Export Plug-In . SVG Version: 2.1.1 Build 123)  -->
  <defs>
    <style>
      .st0 {
        fill: #fff;
      }
    </style>
  </defs>
  <path class="st0" d="M59.1,9.4c10.2,6.6,20.1,13.6,29.9,20.6.8.6,1.6,1.1,2.4,1.7,2.3,1.6,4.6,3.3,6.8,4.9.7.5,1.5,1,2.2,1.6,3.9,2.8,7.6,5.6,11.3,8.6.8.6,1.5,1.2,2.3,1.9,1.5,1.2,2.9,2.4,4.4,3.6.7.5,1.3,1.1,2,1.6.6.5,1.1.9,1.7,1.4,1.3.7,2.7.7,4.2,0,2.8-1.5,5.2-3.1,7.7-5.1,5.7-4.2,11.6-7.8,17.7-11.2,1.1-.6,2.2-1.2,3.3-1.8C226.6-1.8,309.8-9.7,387.9,12.8c53.3,15.9,105.9,48.6,140.8,92.3,2.3,2.9,4.7,5.7,7.1,8.5,11,13.2,19.9,27.4,28.2,42.4.4.8.9,1.5,1.3,2.3,38,67.6,45,150.2,24.6,224.3-15.7,55-47.9,107.4-91.8,144.4-.5.5-1.1.9-1.6,1.4-45.9,38.4-101.6,63.9-161.4,70.6-.8,0-1.6.2-2.5.3-10.4,1-20.8,1-31.2,1h-3c-15.3,0-30.2-.6-45.3-3.3-1-.2-2-.3-3.1-.5-57.7-10-109.8-36.1-152.9-75.5-1-.9-1.9-1.7-2.9-2.6-26.9-24-48.8-54.8-64.1-87.3-.7-1.4-1.4-2.9-2-4.3-13-27-20.9-55.6-25.2-85.2-.2-1.1-.3-2.1-.5-3.2C-.4,319.2-.2,299.8-.2,280.5V39.7C-.2,28.9,1.6,19,9.2,11c.6-.6,1.1-1.3,1.7-1.9,14.4-14.3,33.2-9.4,48.4.3h-.2ZM381.5,190.2c-1.3,1.3-2.6,2.6-4,4-3.6,3.6-7.1,7.1-10.7,10.7-3.7,3.7-7.5,7.5-11.2,11.2-7,7.1-14.1,14.1-21.1,21.2-8,8-16,16.1-24.1,24.1-16.5,16.5-33,33.1-49.5,49.6-3.8-1.8-6.2-4-9.2-7.1-.5-.5-1-1-1.5-1.6-1.1-1.1-2.2-2.2-3.3-3.4-1.7-1.8-3.5-3.6-5.3-5.3-5-5-10-10.1-14.9-15.2-3-3.1-6.1-6.2-9.2-9.3-1.2-1.2-2.3-2.3-3.5-3.5-13.3-13.7-27.7-22.2-47.3-22.7-13.9.1-25.9,4.7-36.9,13-.8.6-1.6,1.2-2.5,1.8-10.3,8.8-17.5,22.8-18.7,36.4,0,2.4,0,4.7,0,7.1v2.5c0,6.4.9,12.1,3.3,18.2.4.9.8,1.9,1.1,2.9,5.5,12.3,15.1,21.5,24.4,30.9.7.7,1.4,1.5,2.1,2.2.7.7,1.3,1.3,2,2,.6.6,1.2,1.2,1.8,1.8.9,1,2.1,1.4,3.5,1.3.3,1,.7,2,1,3,1.1,1.1,2.3,2.2,3.6,3.3,4,3.4,7.7,7,11.4,10.7.7.7,1.3,1.3,2,2,1.4,1.4,2.8,2.8,4.2,4.2,2.2,2.2,4.4,4.5,6.6,6.7,6.3,6.3,12.6,12.7,18.9,19s7.7,7.8,11.6,11.7c1.5,1.5,2.9,3,4.4,4.4,14.1,14.3,28.2,24.5,49,25.4,26.6-.5,43-17.7,60.7-35.4l5.2-5.2,12.5-12.5,10.2-10.2,28.9-28.9,1.6-1.6,1.6-1.6,25.2-25.2c8.7-8.6,17.3-17.3,26-25.9,4.8-4.9,9.7-9.7,14.6-14.5,4.6-4.5,9.1-9.1,13.7-13.7l5-5c9.9-9.8,18.9-19,24.2-32.2.4-.9.8-1.9,1.2-2.9,5-14.3,2.7-31.2-3.4-44.6-7.1-14.1-18.8-23.9-33.7-29.1-30.3-7.8-50.8,4.3-71.5,25.2h0Z"/>
</svg>